# xmcd
#
# Track frame offsets: 
#        150
#        19652
#        46700
#        70407
#        94262
#        118127
#        136077
#        159655
#        185117
#        211555
#        234250
#        256877
#        280112
#
# Disc length: 4042 seconds
#
# Revision: 5
# Processed by: cddbd v1.5.2PL0 Copyright (c) Steve Scherf et al.
# Submitted via: ExactAudioCopyFreeDBPlugin 1.0
#
DISCID=ad0fc80d
DTITLE=Etta James - Blue Gardenia
DYEAR=2001
DGENRE=Rhythm and Blues
TTITLE0=This Bitter Earth
TTITLE1=He's Funny That Way
TTITLE2=In My Solitude
TTITLE3=There is No Greater Love
TTITLE4=Don't Let the Sun Catch You Crying
TTITLE5=Love Letters
TTITLE6=These Foolish Things
TTITLE7=Come Rain or Come Shine
TTITLE8=Don't Worry 'Bout Me
TTITLE9=Cry Me a River
TTITLE10=Don't Blame Me
TTITLE11=My Man
TTITLE12=Blue Gardenia
EXTD=
EXTT0=
EXTT1=
EXTT2=
EXTT3=
EXTT4=
EXTT5=
EXTT6=
EXTT7=
EXTT8=
EXTT9=
EXTT10=
EXTT11=
EXTT12=
PLAYORDER=
